<svg width="193" height="62" viewBox="0 0 193 62" fill="none" xmlns="http://www.w3.org/2000/svg">
<path d="M3.44444 13.7773C2.53092 13.7773 1.65481 14.1402 1.00886 14.7862C0.362896 15.4322 0 16.3083 0 17.2218V44.7773C0 45.6909 0.362896 46.567 1.00886 47.2129C1.65481 47.8589 2.53092 48.2218 3.44444 48.2218C4.35797 48.2218 5.23408 47.8589 5.88003 47.2129C6.52599 46.567 6.88889 45.6909 6.88889 44.7773V17.2218C6.88889 16.3083 6.52599 15.4322 5.88003 14.7862C5.23408 14.1402 4.35797 13.7773 3.44444 13.7773Z" fill="#F15A29"/>
<path d="M58.5558 13.7773C57.6422 13.7773 56.7661 14.1402 56.1202 14.7862C55.4742 15.4322 55.1113 16.3083 55.1113 17.2218V44.7773C55.1113 45.6909 55.4742 46.567 56.1202 47.2129C56.7661 47.8589 57.6422 48.2218 58.5558 48.2218C59.4693 48.2218 60.3454 47.8589 60.9914 47.2129C61.6373 46.567 62.0002 45.6909 62.0002 44.7773V17.2218C62.0002 16.3083 61.6373 15.4322 60.9914 14.7862C60.3454 14.1402 59.4693 13.7773 58.5558 13.7773Z" fill="#F15A29"/>
<path d="M31.0001 0C30.0866 0 29.2105 0.362896 28.5645 1.00886C27.9186 1.65481 27.5557 2.53092 27.5557 3.44444V58.5556C27.5557 59.4691 27.9186 60.3452 28.5645 60.9911C29.2105 61.6371 30.0866 62 31.0001 62C31.9136 62 32.7897 61.6371 33.4357 60.9911C34.0817 60.3452 34.4446 59.4691 34.4446 58.5556V3.44444C34.4446 2.53092 34.0817 1.65481 33.4357 1.00886C32.7897 0.362896 31.9136 0 31.0001 0Z" fill="#F15A29"/>
<path d="M44.7775 6.88867C43.8639 6.88867 42.9878 7.25157 42.3419 7.89753C41.6959 8.54349 41.333 9.41959 41.333 10.3331V51.6665C41.333 52.58 41.6959 53.4561 42.3419 54.102C42.9878 54.748 43.8639 55.1109 44.7775 55.1109C45.691 55.1109 46.5671 54.748 47.213 54.102C47.859 53.4561 48.2219 52.58 48.2219 51.6665V10.3331C48.2219 9.41959 47.859 8.54349 47.213 7.89753C46.5671 7.25157 45.691 6.88867 44.7775 6.88867Z" fill="#F15A29"/>
<path d="M17.2218 6.88867C16.3083 6.88867 15.4322 7.25157 14.7862 7.89753C14.1402 8.54349 13.7773 9.41959 13.7773 10.3331V51.6665C13.7773 52.58 14.1402 53.4561 14.7862 54.102C15.4322 54.748 16.3083 55.1109 17.2218 55.1109C18.1353 55.1109 19.0114 54.748 19.6574 54.102C20.3033 53.4561 20.6662 52.58 20.6662 51.6665V10.3331C20.6662 9.41959 20.3033 8.54349 19.6574 7.89753C19.0114 7.25157 18.1353 6.88867 17.2218 6.88867Z" fill="#F15A29"/>
<path d="M74.3594 50V15.4531H80.0781V50H74.3594ZM85.75 33.2188L97.75 50H91.2344L82 36.4062V29.5625L90.3906 15.4531H96.8125L85.75 33.2188ZM123.156 15.4531H129.578L119.312 35.9375V50H113.594V38.4688L123.156 15.4531ZM110.266 15.4531L115.469 28.9062L112.938 35.0469L103.844 15.4531H110.266ZM160.703 15.4531V19.2969H150.391V50H144.719V19.2969H134.406V15.4531H160.703ZM167.547 15.4531H173.266V50H167.547V15.4531ZM187.703 34.4375H175.188V30.5938H187.703V34.4375ZM175.188 45.7344H189.156V50H175.188V45.7344ZM189.156 15.4531V19.7188H175.188V15.4531H189.156Z" fill="#F15A29"/>
</svg>
