<svg width="130" height="40" viewBox="0 0 130 40" fill="none" xmlns="http://www.w3.org/2000/svg">
<path d="M41.2695 34V8.08984H45.5586V34H41.2695ZM49.8125 21.4141L58.8125 34H53.9258L47 23.8047V18.6719L53.293 8.08984H58.1094L49.8125 21.4141ZM77.8672 8.08984H82.6836L74.9844 23.4531V34H70.6953V25.3516L77.8672 8.08984ZM68.1992 8.08984L72.1016 18.1797L70.2031 22.7852L63.3828 8.08984H68.1992ZM106.027 8.08984V10.9727H98.293V34H94.0391V10.9727H86.3047V8.08984H106.027ZM111.16 8.08984H115.449V34H111.16V8.08984ZM126.277 22.3281H116.891V19.4453H126.277V22.3281ZM116.891 30.8008H127.367V34H116.891V30.8008ZM127.367 8.08984V11.2891H116.891V8.08984H127.367Z" fill="#F15A29"/>
<path d="M1.66667 11.667C1.22464 11.667 0.800716 11.8426 0.488156 12.1551C0.175595 12.4677 0 12.8916 0 13.3337V26.667C0 27.109 0.175595 27.5329 0.488156 27.8455C0.800716 28.1581 1.22464 28.3337 1.66667 28.3337C2.10869 28.3337 2.53262 28.1581 2.84518 27.8455C3.15774 27.5329 3.33333 27.109 3.33333 26.667V13.3337C3.33333 12.8916 3.15774 12.4677 2.84518 12.1551C2.53262 11.8426 2.10869 11.667 1.66667 11.667Z" fill="#F15A29"/>
<path d="M28.3337 11.667C27.8916 11.667 27.4677 11.8426 27.1551 12.1551C26.8426 12.4677 26.667 12.8916 26.667 13.3337V26.667C26.667 27.109 26.8426 27.5329 27.1551 27.8455C27.4677 28.1581 27.8916 28.3337 28.3337 28.3337C28.7757 28.3337 29.1996 28.1581 29.5122 27.8455C29.8247 27.5329 30.0003 27.109 30.0003 26.667V13.3337C30.0003 12.8916 29.8247 12.4677 29.5122 12.1551C29.1996 11.8426 28.7757 11.667 28.3337 11.667Z" fill="#F15A29"/>
<path d="M15.0002 5C14.5581 5 14.1342 5.1756 13.8217 5.48816C13.5091 5.80072 13.3335 6.22464 13.3335 6.66667V33.3333C13.3335 33.7754 13.5091 34.1993 13.8217 34.5118C14.1342 34.8244 14.5581 35 15.0002 35C15.4422 35 15.8661 34.8244 16.1787 34.5118C16.4912 34.1993 16.6668 33.7754 16.6668 33.3333V6.66667C16.6668 6.22464 16.4912 5.80072 16.1787 5.48816C15.8661 5.1756 15.4422 5 15.0002 5Z" fill="#F15A29"/>
<path d="M21.6667 8.33301C21.2246 8.33301 20.8007 8.5086 20.4882 8.82116C20.1756 9.13372 20 9.55765 20 9.99967V29.9997C20 30.4417 20.1756 30.8656 20.4882 31.1782C20.8007 31.4908 21.2246 31.6663 21.6667 31.6663C22.1087 31.6663 22.5326 31.4908 22.8452 31.1782C23.1577 30.8656 23.3333 30.4417 23.3333 29.9997V9.99967C23.3333 9.55765 23.1577 9.13372 22.8452 8.82116C22.5326 8.5086 22.1087 8.33301 21.6667 8.33301Z" fill="#F15A29"/>
<path d="M8.33317 8.33301C7.89114 8.33301 7.46722 8.5086 7.15466 8.82116C6.8421 9.13372 6.6665 9.55765 6.6665 9.99967V29.9997C6.6665 30.4417 6.8421 30.8656 7.15466 31.1782C7.46722 31.4908 7.89114 31.6663 8.33317 31.6663C8.7752 31.6663 9.19912 31.4908 9.51168 31.1782C9.82424 30.8656 9.99984 30.4417 9.99984 29.9997V9.99967C9.99984 9.55765 9.82424 9.13372 9.51168 8.82116C9.19912 8.5086 8.7752 8.33301 8.33317 8.33301Z" fill="#F15A29"/>
</svg>
